<svg version="1.1" xmlns="http://www.w3.org/2000/svg" xmlns:xlink="http://www.w3.org/1999/xlink" x="0px" y="0px"
	 viewBox="0 0 963.89 178.7" style="enable-background:new 0 0 963.89 178.7;" xml:space="preserve">
<style type="text/css">
	.st0{fill:#121212;}
	.st1{fill:#50328B;}
</style>
<g id="Simbolo">
	<g id="XMLID_24_">
		<path id="XMLID_36_" class="st0" d="M581.83,208.67h2.94"/>
	</g>
</g>
<g id="Logotipo">
	<g>
		<path id="XMLID_41_" class="st1" d="M695.07,25.67c1.66-2.56,2.63-5.59,2.65-8.84c0.04-9.22-7.57-16.72-16.98-16.76
			s-17.07,7.41-17.11,16.63c0.04,12.93,11.56,25.8,7.92,41.22c-14.16,43.19-44.19,58.23-45.31,88.85
			c-0.59,16.2,13.29,31.87,29.83,31.94s30.03-15.5,30.09-31.7c0.09-24.16-15.3-52.66-12.65-87.55
			C675.16,46.16,689.08,37.39,695.07,25.67z M669.77,22.72c-1.51-1.42-2.51-4.07-2.49-7.11c0.04-3.92,1.77-7.17,4.05-7.94
			c-1.53,1.72-2.58,4.98-2.62,8.73C668.7,18.78,669.1,20.98,669.77,22.72z M677.03,127.2c3.46,4.19,5.2,11.44,4.12,19.35
			c-1.39,10.19-6.98,18.1-13.18,19.34c4.56-3.98,8.38-12.12,9.7-21.87C678.53,137.79,678.22,131.94,677.03,127.2z"/>
		<path id="XMLID_39_" class="st1" d="M220.8,46.89c3.81,0,7.09,1.37,9.83,4.12c2.67,2.74,4,6.02,4,9.83v0.23
			c0,3.81-1.33,7.05-4,9.72c-2.75,2.74-6.02,4.12-9.83,4.12h-6.52c-6.25,0-11.55,2.17-15.9,6.52c-4.27,4.35-6.44,9.65-6.52,15.9
			v67.47c0,3.89-1.37,7.13-4.12,9.72c-2.75,2.74-5.99,4.12-9.72,4.12h-0.34c-3.74,0-6.98-1.37-9.72-4.12
			c-2.74-2.59-4.12-5.83-4.12-9.72V97.32c0.15-13.95,5.07-25.84,14.75-35.68c9.83-9.83,21.73-14.75,35.68-14.75H220.8z"/>
		<path id="XMLID_35_" class="st1" d="M369.46,85.31c0.91,1.91,1.37,3.85,1.37,5.83c0,1.6-0.31,3.2-0.91,4.8
			c-1.3,3.58-3.74,6.17-7.32,7.78c-10.67,4.8-24.7,11.13-42.08,18.98c-21.58,9.76-34.23,15.51-37.97,17.27
			c5.79,7.32,14.83,10.98,27.1,10.98c8.16,0,15.55-2.4,22.18-7.2c6.48-4.73,11.02-10.82,13.61-18.3c2.21-6.25,6.63-9.38,13.26-9.38
			c4.73,0,8.5,1.98,11.32,5.95c1.75,2.44,2.63,4.99,2.63,7.66c0,1.6-0.31,3.24-0.91,4.92c-4.5,13.04-12.39,23.56-23.67,31.56
			c-11.44,8.31-24.24,12.47-38.42,12.47c-18.15,0-33.66-6.44-46.54-19.33c-12.88-12.88-19.33-28.4-19.33-46.54
			c0-18.14,6.44-33.66,19.33-46.54c12.88-12.88,28.4-19.33,46.54-19.33c13.11,0,25.08,3.58,35.91,10.75
			C356.31,64.65,364.28,73.87,369.46,85.31z M309.65,75.13c-10.52,0-19.48,3.7-26.87,11.09c-7.32,7.4-10.98,16.35-10.98,26.87v0.8
			l63.93-28.7C330.08,78.49,321.39,75.13,309.65,75.13z"/>
		<path id="XMLID_32_" class="st1" d="M505.66,66.21c12.88,12.88,19.33,28.4,19.33,46.54v52.03c0,3.89-1.37,7.13-4.12,9.72
			c-2.75,2.74-5.99,4.12-9.72,4.12h-0.34c-3.74,0-6.98-1.37-9.72-4.12c-2.74-2.59-4.12-5.83-4.12-9.72
			c-8.69,9.23-21.31,13.84-37.85,13.84c-18.15,0-33.66-6.44-46.54-19.33c-12.88-12.88-19.33-28.4-19.33-46.54
			c0-18.14,6.44-33.66,19.33-46.54c12.88-12.88,28.4-19.33,46.54-19.33C477.26,46.89,492.78,53.33,505.66,66.21z M432.24,86
			c-7.32,7.4-10.98,16.32-10.98,26.76c0,10.52,3.66,19.48,10.98,26.87c7.39,7.32,16.35,10.98,26.87,10.98
			c10.52,0,19.44-3.66,26.76-10.98c7.39-7.39,11.09-16.35,11.09-26.87c0-10.44-3.7-19.36-11.09-26.76
			c-7.4-7.39-16.32-11.09-26.76-11.09C448.6,74.9,439.64,78.6,432.24,86z"/>
		<path id="XMLID_10_" class="st1" d="M562.04,0c3.73,0,6.98,1.33,9.72,4c2.75,2.74,4.12,6.02,4.12,9.83v33.05h17.15
			c3.73,0,6.98,1.37,9.72,4.12c2.74,2.74,4.12,6.02,4.12,9.83v0.23c0,3.89-1.37,7.13-4.12,9.72c-2.75,2.74-5.99,4.12-9.72,4.12
			h-17.15v67.81c0,2.21,0.76,4.08,2.29,5.6c1.52,1.53,3.43,2.29,5.72,2.29h9.15c3.73,0,6.98,1.37,9.72,4.12
			c2.74,2.75,4.12,6.02,4.12,9.83v0.23c0,3.89-1.37,7.13-4.12,9.72c-2.75,2.74-5.99,4.12-9.72,4.12h-9.15
			c-9.91,0-18.41-3.51-25.5-10.52c-7.01-7.09-10.52-15.55-10.52-25.39V13.84c0-3.81,1.37-7.09,4.12-9.83c2.74-2.67,5.98-4,9.72-4
			H562.04z"/>
		<path id="XMLID_5_" class="st1" d="M748.44,150.61l57.87,0.11c3.81,0,7.05,1.33,9.72,4c2.75,2.74,4.12,6.02,4.12,9.83v0.23
			c0,3.81-1.37,7.09-4.12,9.83c-2.67,2.67-5.91,4-9.72,4h-74.68c-9,0-15.29-4.23-18.87-12.69c-1.37-3.13-2.06-6.14-2.06-9.03
			c0-5.11,2.17-9.83,6.52-14.18c7.47-7.78,18.83-19.67,34.08-35.68c13.34-14.03,23.56-24.74,30.65-32.13h-52.83
			c-3.89,0-7.17-1.37-9.83-4.12c-2.67-2.74-4-5.98-4-9.72v-0.34c0-3.73,1.33-6.98,4-9.72c2.67-2.75,5.95-4.12,9.83-4.12h69.07
			c9.22,0,15.67,4.23,19.33,12.69c1.37,3.13,2.06,6.14,2.06,9.03c0,5.18-2.17,9.91-6.52,14.18
			C788.35,108.72,766.81,131.32,748.44,150.61z"/>
		<path id="XMLID_1_" class="st1" d="M960.69,85.31c0.91,1.91,1.37,3.85,1.37,5.83c0,1.6-0.31,3.2-0.91,4.8
			c-1.3,3.58-3.74,6.17-7.32,7.78c-10.67,4.8-24.7,11.13-42.08,18.98c-21.58,9.76-34.23,15.51-37.97,17.27
			c5.79,7.32,14.83,10.98,27.1,10.98c8.16,0,15.55-2.4,22.18-7.2c6.48-4.73,11.02-10.82,13.61-18.3c2.21-6.25,6.63-9.38,13.26-9.38
			c4.73,0,8.5,1.98,11.32,5.95c1.75,2.44,2.63,4.99,2.63,7.66c0,1.6-0.31,3.24-0.91,4.92c-4.5,13.04-12.39,23.56-23.67,31.56
			c-11.44,8.31-24.24,12.47-38.42,12.47c-18.15,0-33.66-6.44-46.54-19.33c-12.88-12.88-19.33-28.4-19.33-46.54
			c0-18.14,6.44-33.66,19.33-46.54c12.88-12.88,28.4-19.33,46.54-19.33c13.11,0,25.08,3.58,35.91,10.75
			C947.54,64.65,955.5,73.87,960.69,85.31z M900.88,75.13c-10.52,0-19.48,3.7-26.87,11.09c-7.32,7.4-10.98,16.35-10.98,26.87v0.8
			l63.93-28.7C921.31,78.49,912.62,75.13,900.88,75.13z"/>
		<path class="st1" d="M92.52,149.76c-38.78,0-63.75-30.37-63.64-60.41c-0.11-32.61,24.86-60.41,63.64-60.41
			c19.74,0.07,35.26,11.15,41.34-6.09c0-9.41-4.55-15.61-13.63-18.6c-8.98-2.78-18.28-4.17-27.91-4.17
			c-25.45,0-47.21,9.03-65.28,27.11C9.71,44.5,0.71,65.24,0,89.35c0.71,24.11,9.71,44.84,27.04,62.17
			c18.07,18.07,39.83,27.11,65.28,27.11c9.62,0,18.93-1.39,27.91-4.17c9.09-2.99,13.63-9.19,13.63-18.6
			C127.78,138.61,112.26,149.69,92.52,149.76z"/>
	</g>
</g>
<g id="Slogan">
</g>
</svg>
