<?xml version="1.0" encoding="utf-8"?>
<!-- Generator: Adobe Illustrator 19.0.0, SVG Export Plug-In . SVG Version: 6.00 Build 0)  -->
<svg version="1.1" id="Camada_1" xmlns="http://www.w3.org/2000/svg" xmlns:xlink="http://www.w3.org/1999/xlink" x="0px" y="0px"
	 width="200px" height="49px" viewBox="0 0 200 49" style="enable-background:new 0 0 200 49;" xml:space="preserve">
<style type="text/css">
	.st0{fill:#141414;}
</style>
<g id="XMLID_40_">
	<g id="XMLID_52_">
		<g id="XMLID_75_">
			<path id="XMLID_103_" class="st0" d="M56.3,13.8c1.1-0.2,2.7-0.3,4.5-0.3c2.2,0,3.8,0.3,4.9,1.2c0.9,0.7,1.4,1.8,1.4,3.2
				c0,1.9-1.4,3.2-2.7,3.7v0.1c1.1,0.4,1.6,1.4,2,2.8c0.5,1.7,0.9,3.7,1.2,4.3h-3.5c-0.2-0.4-0.6-1.7-1-3.5
				c-0.4-1.9-1.1-2.4-2.5-2.4h-1v5.9h-3.4V13.8z M59.7,20.3H61c1.7,0,2.7-0.9,2.7-2.2c0-1.4-0.9-2.1-2.5-2.1c-0.8,0-1.3,0-1.5,0.1
				V20.3z"/>
			<path id="XMLID_100_" class="st0" d="M71.4,16.4c-1.1,0-1.8-0.8-1.8-1.7c0-1,0.7-1.7,1.8-1.7c1.1,0,1.8,0.7,1.8,1.7
				C73.2,15.6,72.5,16.4,71.4,16.4L71.4,16.4z M69.7,28.7v-11h3.4v11H69.7z"/>
			<path id="XMLID_98_" class="st0" d="M84.1,28.4c-0.6,0.3-1.7,0.5-3,0.5c-3.5,0-5.8-2.2-5.8-5.6c0-3.2,2.2-5.8,6.3-5.8
				c0.9,0,1.9,0.2,2.6,0.4l-0.5,2.5c-0.4-0.2-1-0.3-1.9-0.3c-1.8,0-3,1.3-2.9,3c0,2,1.3,3.1,3,3.1c0.8,0,1.4-0.1,1.9-0.4L84.1,28.4z
				"/>
			<path id="XMLID_96_" class="st0" d="M85.9,12.7h3.4V19h0c0.4-0.5,0.8-0.9,1.3-1.1c0.5-0.3,1.1-0.4,1.8-0.4c2.2,0,3.8,1.5,3.8,4.8
				v6.4h-3.4v-6c0-1.4-0.5-2.4-1.8-2.4c-0.9,0-1.5,0.6-1.7,1.2c-0.1,0.2-0.1,0.5-0.1,0.7v6.5h-3.4V12.7z"/>
			<path id="XMLID_93_" class="st0" d="M108.2,26c0,1,0,2,0.2,2.6h-3.1l-0.2-1.1H105c-0.7,0.9-1.8,1.3-3.1,1.3
				c-2.2,0-3.5-1.6-3.5-3.4c0-2.8,2.6-4.2,6.4-4.2v-0.1c0-0.6-0.3-1.4-2-1.4c-1.1,0-2.3,0.4-3,0.8l-0.6-2.2c0.8-0.4,2.3-1,4.3-1
				c3.7,0,4.8,2.2,4.8,4.7V26z M104.9,23.5c-1.8,0-3.2,0.4-3.2,1.7c0,0.9,0.6,1.3,1.3,1.3c0.8,0,1.5-0.6,1.8-1.3
				c0-0.2,0.1-0.4,0.1-0.6V23.5z"/>
			<path id="XMLID_91_" class="st0" d="M110.9,21.3c0-1.6,0-2.7-0.1-3.6h2.9l0.1,2h0.1c0.6-1.6,1.9-2.3,3-2.3c0.3,0,0.5,0,0.7,0.1
				v3.2c-0.3,0-0.5-0.1-0.9-0.1c-1.3,0-2.1,0.6-2.3,1.7c0,0.2-0.1,0.5-0.1,0.8v5.5h-3.4V21.3z"/>
			<path id="XMLID_88_" class="st0" d="M129.9,12.7v12.7c0,1.2,0,2.5,0.1,3.3h-3l-0.1-1.6h-0.1c-0.7,1.2-2,1.8-3.4,1.8
				c-2.6,0-4.7-2.2-4.7-5.6c0-3.7,2.3-5.8,4.9-5.8c1.4,0,2.4,0.5,2.9,1.2h0v-6H129.9z M126.5,22.4c0-0.2,0-0.4,0-0.6
				c-0.2-0.9-0.9-1.7-2-1.7c-1.6,0-2.4,1.4-2.4,3.1c0,1.8,0.9,3,2.3,3c1,0,1.8-0.7,2-1.6c0-0.2,0.1-0.5,0.1-0.8V22.4z"/>
			<path id="XMLID_86_" class="st0" d="M150,22.9c-0.1-1.8-0.1-4-0.1-6.2h0c-0.5,1.9-1.1,4.1-1.7,5.8l-1.8,5.9h-2.7l-1.6-5.8
				c-0.5-1.8-1-3.9-1.4-5.9h0c-0.1,2-0.2,4.4-0.2,6.3l-0.3,5.7h-3.2l1-15.1h4.5l1.5,5c0.5,1.7,0.9,3.6,1.3,5.4h0.1
				c0.4-1.7,0.9-3.7,1.4-5.4l1.6-5h4.5l0.8,15.1h-3.3L150,22.9z"/>
			<path id="XMLID_83_" class="st0" d="M165.2,26c0,1,0,2,0.2,2.6h-3.1l-0.2-1.1H162c-0.7,0.9-1.8,1.3-3.1,1.3
				c-2.2,0-3.5-1.6-3.5-3.4c0-2.8,2.6-4.2,6.4-4.2v-0.1c0-0.6-0.3-1.4-2-1.4c-1.1,0-2.3,0.4-3,0.8l-0.6-2.2c0.8-0.4,2.3-1,4.3-1
				c3.7,0,4.8,2.2,4.8,4.7V26z M161.9,23.5c-1.8,0-3.2,0.4-3.2,1.7c0,0.9,0.6,1.3,1.3,1.3c0.8,0,1.5-0.6,1.8-1.3
				c0-0.2,0.1-0.4,0.1-0.6V23.5z"/>
			<path id="XMLID_81_" class="st0" d="M171.5,14.7v3h2.4v2.5h-2.4v4c0,1.3,0.3,1.9,1.3,1.9c0.5,0,0.7,0,1-0.1l0,2.6
				c-0.4,0.2-1.3,0.3-2.2,0.3c-1.1,0-2-0.4-2.6-0.9c-0.6-0.6-0.9-1.7-0.9-3.2v-4.5h-1.5v-2.5h1.5v-2.1L171.5,14.7z"/>
			<path id="XMLID_78_" class="st0" d="M180.9,28.9c-3.2,0-5.7-2.1-5.7-5.6c0-3.5,2.3-5.8,5.9-5.8c3.3,0,5.6,2.3,5.6,5.6
				C186.7,27.1,183.8,28.9,180.9,28.9L180.9,28.9z M181,26.5c1.3,0,2.2-1.3,2.2-3.3c0-1.6-0.6-3.3-2.2-3.3c-1.6,0-2.2,1.7-2.2,3.3
				C178.7,25.1,179.5,26.5,181,26.5L181,26.5z"/>
			<path id="XMLID_76_" class="st0" d="M188.7,25.7c0.6,0.4,1.9,0.8,2.9,0.8c1,0,1.5-0.3,1.5-0.9c0-0.6-0.3-0.9-1.6-1.3
				c-2.3-0.8-3.2-2-3.1-3.3c0-2.1,1.7-3.6,4.5-3.6c1.3,0,2.4,0.3,3.1,0.6l-0.6,2.3c-0.5-0.2-1.5-0.6-2.4-0.6c-0.8,0-1.3,0.3-1.3,0.9
				c0,0.5,0.4,0.8,1.8,1.3c2.1,0.7,2.9,1.8,3,3.4c0,2.1-1.6,3.6-4.7,3.6c-1.4,0-2.7-0.3-3.5-0.8L188.7,25.7z"/>
		</g>
		<g id="XMLID_53_">
			<path id="XMLID_72_" class="st0" d="M56.3,31.8c0.6-0.1,1.3-0.2,2.1-0.2c1.4,0,2.4,0.3,3.1,1c0.7,0.6,1.1,1.5,1.1,2.8
				c0,1.3-0.4,2.3-1.1,3c-0.7,0.7-1.9,1.1-3.4,1.1c-0.7,0-1.3,0-1.8-0.1V31.8z M57.3,38.6c0.3,0,0.6,0.1,1,0.1
				c2.1,0,3.3-1.2,3.3-3.3c0-1.8-1-3-3.1-3c-0.5,0-0.9,0-1.2,0.1V38.6z"/>
			<path id="XMLID_69_" class="st0" d="M64.5,36.8c0,1.4,0.9,1.9,1.9,1.9c0.7,0,1.2-0.1,1.5-0.3l0.2,0.7c-0.4,0.2-1,0.3-1.8,0.3
				c-1.7,0-2.7-1.1-2.7-2.8c0-1.7,1-3,2.6-3c1.8,0,2.3,1.6,2.3,2.6c0,0.2,0,0.4,0,0.5H64.5z M67.4,36.1c0-0.6-0.3-1.6-1.4-1.6
				c-1,0-1.5,0.9-1.5,1.6H67.4z"/>
			<path id="XMLID_67_" class="st0" d="M69.5,38.4c0.3,0.2,0.8,0.4,1.3,0.4c0.7,0,1.1-0.4,1.1-0.8c0-0.5-0.3-0.7-1-1
				c-1-0.4-1.5-0.9-1.5-1.6c0-0.9,0.7-1.6,1.9-1.6c0.6,0,1.1,0.2,1.4,0.3l-0.3,0.7c-0.2-0.1-0.6-0.3-1.1-0.3c-0.6,0-0.9,0.3-0.9,0.8
				c0,0.5,0.3,0.7,1.1,0.9c1,0.4,1.5,0.8,1.5,1.7c0,1-0.8,1.7-2.1,1.7c-0.6,0-1.2-0.1-1.6-0.4L69.5,38.4z"/>
			<path id="XMLID_64_" class="st0" d="M75.3,32.3c0,0.3-0.2,0.6-0.6,0.6c-0.4,0-0.6-0.3-0.6-0.6c0-0.4,0.3-0.6,0.6-0.6
				C75.1,31.7,75.3,32,75.3,32.3z M74.2,39.4v-5.5h1v5.5H74.2z"/>
			<path id="XMLID_61_" class="st0" d="M81.6,33.9c0,0.4,0,0.8,0,1.5v3.2c0,1.3-0.3,2-0.8,2.5c-0.5,0.5-1.3,0.7-2,0.7
				c-0.7,0-1.4-0.2-1.8-0.5l0.3-0.8c0.4,0.2,0.9,0.4,1.6,0.4c1,0,1.8-0.5,1.8-1.9v-0.6h0c-0.3,0.5-0.9,0.9-1.8,0.9
				c-1.4,0-2.4-1.2-2.4-2.7c0-1.9,1.2-2.9,2.5-2.9c1,0,1.5,0.5,1.7,1h0l0-0.8H81.6z M80.6,36.1c0-0.2,0-0.3-0.1-0.5
				c-0.2-0.6-0.7-1.1-1.4-1.1c-1,0-1.6,0.8-1.6,2.1c0,1.1,0.5,2,1.6,2c0.6,0,1.2-0.4,1.4-1c0.1-0.2,0.1-0.4,0.1-0.5V36.1z"/>
			<path id="XMLID_59_" class="st0" d="M83.2,35.4c0-0.6,0-1,0-1.5H84l0.1,0.9h0c0.3-0.5,0.9-1,1.8-1c0.8,0,2,0.5,2,2.4v3.3h-1v-3.2
				c0-0.9-0.3-1.6-1.3-1.6c-0.7,0-1.2,0.5-1.3,1c0,0.1-0.1,0.3-0.1,0.5v3.3h-1V35.4z"/>
			<path id="XMLID_56_" class="st0" d="M90.1,36.8c0,1.4,0.9,1.9,1.9,1.9c0.7,0,1.2-0.1,1.5-0.3l0.2,0.7c-0.4,0.2-1,0.3-1.8,0.3
				c-1.7,0-2.7-1.1-2.7-2.8c0-1.7,1-3,2.6-3c1.8,0,2.3,1.6,2.3,2.6c0,0.2,0,0.4,0,0.5H90.1z M93.1,36.1c0-0.6-0.3-1.6-1.4-1.6
				c-1,0-1.5,0.9-1.5,1.6H93.1z"/>
			<path id="XMLID_54_" class="st0" d="M95.3,35.6c0-0.7,0-1.2,0-1.7h0.9l0,1.1h0c0.3-0.7,0.9-1.2,1.5-1.2c0.1,0,0.2,0,0.3,0v0.9
				c-0.1,0-0.2,0-0.3,0c-0.7,0-1.2,0.5-1.3,1.3c0,0.1,0,0.3,0,0.5v3h-1V35.6z"/>
		</g>
	</g>
	<g id="XMLID_41_">
		<path id="XMLID_49_" class="st0" d="M41.9,38.7c-1.2,0-2.1,0.9-2.1,2.1c0,1.2,0.9,2.1,2.1,2.1s2.1-0.9,2.1-2.1
			C44.1,39.7,43.1,38.7,41.9,38.7z M42,42.5c-0.9,0-1.7-0.8-1.7-1.7s0.8-1.7,1.7-1.7s1.7,0.8,1.7,1.7S42.9,42.5,42,42.5z"/>
		<path id="XMLID_45_" class="st0" d="M24.1,3C12.7,3,3.5,12.2,3.5,23.5v20.6h20.6c11.4,0,20.6-9.2,20.6-20.6S35.5,3,24.1,3z
			 M14.6,31.3h-2.3V15.8h8.1c4.8,0,6.7,5.7,2.5,9.4l-1.7-2.2c1.8-1.5,1.4-4.6-0.8-4.7h-5.8V31.3z M35.9,31.3h-2.3V19l-7.9,12.3h-3.2
			l-5.6-7.2l2.1-1.6l5.1,6.5l8.4-13.2h3.4V31.3z"/>
		<path id="XMLID_42_" class="st0" d="M41.3,40c0.1,0,0.3,0,0.5,0c0.3,0,0.4,0,0.5,0.1c0.1,0.1,0.2,0.2,0.2,0.4
			c0,0.2-0.2,0.4-0.3,0.4v0c0.1,0,0.2,0.2,0.2,0.3c0.1,0.2,0.1,0.4,0.1,0.5h-0.4c0-0.1-0.1-0.2-0.1-0.4c0-0.2-0.1-0.3-0.3-0.3h-0.1
			v0.7h-0.4V40z M41.7,40.7h0.2c0.2,0,0.3-0.1,0.3-0.2c0-0.2-0.1-0.2-0.3-0.2c-0.1,0-0.1,0-0.2,0V40.7z"/>
	</g>
</g>
</svg>
