<?xml version="1.0" encoding="utf-8"?>
<!-- Generator: Adobe Illustrator 23.0.0, SVG Export Plug-In . SVG Version: 6.00 Build 0)  -->
<svg version="1.1" xmlns="http://www.w3.org/2000/svg" xmlns:xlink="http://www.w3.org/1999/xlink" x="0px" y="0px"
	 width="525.49px" height="490.27px" viewBox="0 0 525.49 490.27" style="enable-background:new 0 0 525.49 490.27;"
	 xml:space="preserve">
<style type="text/css">
	.st0{display:none;}
	.st1{display:inline;fill:#313030;}
	.st2{fill:#7950DC;}
	.st3{display:inline;}
	.st4{fill:none;stroke:#FFFFFF;stroke-width:19.9808;stroke-miterlimit:10;}
	.st5{fill:#FFFFFF;}
</style>
<g id="Camada_2" class="st0">
	<rect x="-445.91" y="-500.5" class="st1" width="1417" height="1417"/>
</g>
<g id="Camada_1">
	<g>
		<path class="st2" d="M87.92,415.6H23.98C10.79,415.6,0,404.99,0,392.02V24.58C0,11.61,10.79,1,23.98,1h63.94
			c13.19,0,23.98,10.61,23.98,23.58v4.35C129.88,4,151.85,0,201.81,0v103.9c-47.95,0-89.91,30.29-89.91,83.77v204.35
			C111.89,404.99,101.1,415.6,87.92,415.6z"/>
		<path class="st2" d="M413.6,203.8v187.82c0,13.19,10.79,23.98,23.98,23.98h63.94c13.19,0,23.98-10.79,23.98-23.98V203.8
			C525.49,83.92,433.58,0,313.7,0v103.9C377.64,103.9,413.6,137.87,413.6,203.8z"/>
		<path class="st2" d="M202.17,103.9c-0.22,1.3-0.36,2.63-0.36,4v283.73c0,13.19,10.79,23.98,23.98,23.98h63.94
			c13.19,0,23.98-10.79,23.98-23.98V107.9c0-1.36-0.14-2.69-0.36-4H202.17z"/>
	</g>
	<g>
		<path class="st2" d="M8.15,489.82l-7.61-30.02h4.1l3.56,15.19c0.89,3.74,1.69,7.48,2.23,10.38h0.09
			c0.49-2.98,1.43-6.55,2.45-10.42l4.01-15.14h4.05l3.65,15.23c0.85,3.56,1.65,7.13,2.09,10.29h0.09c0.62-3.3,1.47-6.64,2.41-10.38
			l3.96-15.14h3.96l-8.51,30.02h-4.05l-3.79-15.63c-0.94-3.83-1.56-6.77-1.96-9.8H18.8c-0.53,2.98-1.2,5.92-2.32,9.8l-4.28,15.63
			H8.15z"/>
		<path class="st2" d="M78.74,475.75H67.07v10.82h13v3.25H63.2v-30.02h16.21v3.25H67.07v9.49h11.67V475.75z"/>
		<path class="st2" d="M107.38,460.21c1.69-0.36,4.36-0.62,7.08-0.62c3.87,0,6.37,0.67,8.24,2.18c1.56,1.16,2.49,2.94,2.49,5.3
			c0,2.89-1.92,5.43-5.08,6.59v0.09c2.85,0.71,6.19,3.07,6.19,7.53c0,2.58-1.02,4.54-2.54,6.01c-2.09,1.92-5.48,2.81-10.38,2.81
			c-2.67,0-4.72-0.18-6.01-0.36V460.21z M111.25,472.5h3.52c4.1,0,6.5-2.14,6.5-5.03c0-3.52-2.67-4.9-6.59-4.9
			c-1.78,0-2.81,0.13-3.43,0.27V472.5z M111.25,486.88c0.76,0.13,1.87,0.18,3.25,0.18c4.01,0,7.7-1.47,7.7-5.83
			c0-4.1-3.52-5.79-7.75-5.79h-3.21V486.88z"/>
		<path class="st2" d="M185.5,460.21c2.36-0.36,5.17-0.62,8.24-0.62c5.57,0,9.53,1.29,12.16,3.74c2.67,2.45,4.23,5.92,4.23,10.78
			c0,4.9-1.51,8.91-4.32,11.67c-2.81,2.81-7.44,4.32-13.27,4.32c-2.76,0-5.08-0.13-7.04-0.36V460.21z M189.37,486.75
			c0.98,0.18,2.41,0.22,3.92,0.22c8.28,0,12.78-4.63,12.78-12.74c0.04-7.08-3.96-11.58-12.16-11.58c-2,0-3.52,0.18-4.54,0.4V486.75z
			"/>
		<path class="st2" d="M252.97,475.75H241.3v10.82h13v3.25h-16.88v-30.02h16.21v3.25H241.3v9.49h11.67V475.75z"/>
		<path class="st2" d="M281.07,485.1c1.74,1.07,4.28,1.96,6.95,1.96c3.96,0,6.28-2.09,6.28-5.12c0-2.81-1.6-4.41-5.66-5.97
			c-4.9-1.74-7.93-4.28-7.93-8.51c0-4.68,3.88-8.15,9.71-8.15c3.07,0,5.3,0.71,6.64,1.47l-1.07,3.16c-0.98-0.53-2.98-1.43-5.7-1.43
			c-4.1,0-5.66,2.45-5.66,4.5c0,2.81,1.83,4.19,5.97,5.79c5.08,1.96,7.66,4.41,7.66,8.82c0,4.63-3.43,8.64-10.51,8.64
			c-2.9,0-6.06-0.85-7.66-1.92L281.07,485.1z"/>
		<path class="st2" d="M329.7,459.81v30.02h-3.87v-30.02H329.7z"/>
		<path class="st2" d="M381.59,488.49c-1.74,0.62-5.17,1.65-9.22,1.65c-4.54,0-8.28-1.16-11.22-3.96c-2.58-2.49-4.19-6.5-4.19-11.18
			c0.04-8.95,6.19-15.5,16.25-15.5c3.47,0,6.19,0.76,7.48,1.38l-0.94,3.16c-1.6-0.71-3.61-1.29-6.64-1.29
			c-7.3,0-12.07,4.54-12.07,12.07c0,7.62,4.59,12.11,11.58,12.11c2.54,0,4.28-0.36,5.17-0.8v-8.95h-6.1v-3.12h9.89V488.49z"/>
		<path class="st2" d="M409.78,489.82v-30.02h4.23l9.62,15.19c2.23,3.52,3.96,6.68,5.39,9.75l0.09-0.04
			c-0.36-4.01-0.45-7.66-0.45-12.34v-12.56h3.65v30.02h-3.92l-9.53-15.23c-2.09-3.34-4.1-6.77-5.61-10.02l-0.13,0.04
			c0.22,3.79,0.31,7.39,0.31,12.38v12.83H409.78z"/>
		<path class="st2" d="M476.9,475.75h-11.67v10.82h13v3.25h-16.88v-30.02h16.21v3.25h-12.34v9.49h11.67V475.75z"/>
		<path class="st2" d="M505.54,460.21c1.96-0.4,4.77-0.62,7.44-0.62c4.14,0,6.81,0.76,8.68,2.45c1.51,1.34,2.36,3.38,2.36,5.7
			c0,3.96-2.49,6.59-5.66,7.66v0.13c2.32,0.8,3.7,2.94,4.41,6.06c0.98,4.19,1.69,7.08,2.32,8.24h-4.01c-0.49-0.85-1.16-3.43-2-7.17
			c-0.89-4.14-2.49-5.7-6.01-5.83h-3.65v13h-3.87V460.21z M509.41,473.88h3.96c4.14,0,6.77-2.27,6.77-5.7c0-3.88-2.81-5.57-6.9-5.61
			c-1.87,0-3.21,0.18-3.83,0.36V473.88z"/>
	</g>
</g>
<g id="Camada_3" class="st0">
	<g class="st3">
		<path class="st4" d="M87.92,415.96H23.98C10.79,415.96,0,405.35,0,392.38V24.94C0,11.97,10.79,1.36,23.98,1.36h63.94
			c13.19,0,23.98,10.61,23.98,23.58v4.35c17.98-24.93,39.96-28.93,89.91-28.93v103.9c-47.95,0-89.91,30.29-89.91,83.77v204.35
			C111.89,405.35,101.1,415.96,87.92,415.96z"/>
		<path class="st4" d="M413.6,204.17v187.82c0,13.19,10.79,23.98,23.98,23.98h63.94c13.19,0,23.98-10.79,23.98-23.98V204.17
			c0-119.88-91.91-203.8-211.8-203.8v103.9C377.64,104.26,413.6,138.23,413.6,204.17z"/>
		<path class="st4" d="M202.17,104.26c-0.22,1.3-0.36,2.63-0.36,4v283.73c0,13.19,10.79,23.98,23.98,23.98h63.94
			c13.19,0,23.98-10.79,23.98-23.98V108.26c0-1.36-0.14-2.69-0.36-4H202.17z"/>
	</g>
	<g class="st3">
		<path class="st5" d="M8.15,479.82l-7.61-30.02h4.1l3.56,15.19c0.89,3.74,1.69,7.48,2.23,10.38h0.09
			c0.49-2.98,1.43-6.55,2.45-10.42l4.01-15.14h4.05l3.65,15.23c0.85,3.56,1.65,7.13,2.09,10.29h0.09c0.62-3.3,1.47-6.64,2.41-10.38
			l3.96-15.14h3.96l-8.51,30.02h-4.05l-3.79-15.63c-0.94-3.83-1.56-6.77-1.96-9.8H18.8c-0.53,2.98-1.2,5.92-2.32,9.8l-4.28,15.63
			H8.15z"/>
		<path class="st5" d="M78.74,465.75H67.07v10.82h13v3.25H63.2v-30.02h16.21v3.25H67.07v9.49h11.67V465.75z"/>
		<path class="st5" d="M107.38,450.21c1.69-0.36,4.36-0.62,7.08-0.62c3.87,0,6.37,0.67,8.24,2.18c1.56,1.16,2.49,2.94,2.49,5.3
			c0,2.89-1.92,5.43-5.08,6.59v0.09c2.85,0.71,6.19,3.07,6.19,7.53c0,2.58-1.02,4.54-2.54,6.01c-2.09,1.92-5.48,2.81-10.38,2.81
			c-2.67,0-4.72-0.18-6.01-0.36V450.21z M111.25,462.5h3.52c4.1,0,6.5-2.14,6.5-5.03c0-3.52-2.67-4.9-6.59-4.9
			c-1.78,0-2.81,0.13-3.43,0.27V462.5z M111.25,476.88c0.76,0.13,1.87,0.18,3.25,0.18c4.01,0,7.7-1.47,7.7-5.83
			c0-4.1-3.52-5.79-7.75-5.79h-3.21V476.88z"/>
		<path class="st5" d="M185.5,450.21c2.36-0.36,5.17-0.62,8.24-0.62c5.57,0,9.53,1.29,12.16,3.74c2.67,2.45,4.23,5.92,4.23,10.78
			c0,4.9-1.51,8.91-4.32,11.67c-2.81,2.81-7.44,4.32-13.27,4.32c-2.76,0-5.08-0.13-7.04-0.36V450.21z M189.37,476.75
			c0.98,0.18,2.41,0.22,3.92,0.22c8.28,0,12.78-4.63,12.78-12.74c0.04-7.08-3.96-11.58-12.16-11.58c-2,0-3.52,0.18-4.54,0.4V476.75z
			"/>
		<path class="st5" d="M252.97,465.75H241.3v10.82h13v3.25h-16.88v-30.02h16.21v3.25H241.3v9.49h11.67V465.75z"/>
		<path class="st5" d="M281.07,475.1c1.74,1.07,4.28,1.96,6.95,1.96c3.96,0,6.28-2.09,6.28-5.12c0-2.81-1.6-4.41-5.66-5.97
			c-4.9-1.74-7.93-4.28-7.93-8.51c0-4.68,3.88-8.15,9.71-8.15c3.07,0,5.3,0.71,6.64,1.47l-1.07,3.16c-0.98-0.53-2.98-1.43-5.7-1.43
			c-4.1,0-5.66,2.45-5.66,4.5c0,2.81,1.83,4.19,5.97,5.79c5.08,1.96,7.66,4.41,7.66,8.82c0,4.63-3.43,8.64-10.51,8.64
			c-2.9,0-6.06-0.85-7.66-1.92L281.07,475.1z"/>
		<path class="st5" d="M329.7,449.81v30.02h-3.87v-30.02H329.7z"/>
		<path class="st5" d="M381.59,478.49c-1.74,0.62-5.17,1.65-9.22,1.65c-4.54,0-8.28-1.16-11.22-3.96c-2.58-2.49-4.19-6.5-4.19-11.18
			c0.04-8.95,6.19-15.5,16.25-15.5c3.47,0,6.19,0.76,7.48,1.38l-0.94,3.16c-1.6-0.71-3.61-1.29-6.64-1.29
			c-7.3,0-12.07,4.54-12.07,12.07c0,7.62,4.59,12.11,11.58,12.11c2.54,0,4.28-0.36,5.17-0.8v-8.95h-6.1v-3.12h9.89V478.49z"/>
		<path class="st5" d="M409.78,479.82v-30.02h4.23l9.62,15.19c2.23,3.52,3.96,6.68,5.39,9.75l0.09-0.04
			c-0.36-4.01-0.45-7.66-0.45-12.34v-12.56h3.65v30.02h-3.92l-9.53-15.23c-2.09-3.34-4.1-6.77-5.61-10.02l-0.13,0.04
			c0.22,3.79,0.31,7.39,0.31,12.38v12.83H409.78z"/>
		<path class="st5" d="M476.9,465.75h-11.67v10.82h13v3.25h-16.88v-30.02h16.21v3.25h-12.34v9.49h11.67V465.75z"/>
		<path class="st5" d="M505.54,450.21c1.96-0.4,4.77-0.62,7.44-0.62c4.14,0,6.81,0.76,8.68,2.45c1.51,1.34,2.36,3.38,2.36,5.7
			c0,3.96-2.49,6.59-5.66,7.66v0.13c2.32,0.8,3.7,2.94,4.41,6.06c0.98,4.19,1.69,7.08,2.32,8.24h-4.01c-0.49-0.85-1.16-3.43-2-7.17
			c-0.89-4.14-2.49-5.7-6.01-5.83h-3.65v13h-3.87V450.21z M509.41,463.88h3.96c4.14,0,6.77-2.27,6.77-5.7c0-3.88-2.81-5.57-6.9-5.61
			c-1.87,0-3.21,0.18-3.83,0.36V463.88z"/>
	</g>
</g>
</svg>
