<?xml version="1.0" encoding="utf-8"?>
<!-- Generator: Adobe Illustrator 23.0.0, SVG Export Plug-In . SVG Version: 6.00 Build 0)  -->
<svg version="1.1" xmlns="http://www.w3.org/2000/svg" xmlns:xlink="http://www.w3.org/1999/xlink" x="0px" y="0px"
	 width="1417.32px" height="1417.32px" viewBox="0 0 1417.32 1417.32" style="enable-background:new 0 0 1417.32 1417.32;"
	 xml:space="preserve">
<style type="text/css">
	.st0{display:none;}
	.st1{display:inline;fill:#313030;}
	.st2{display:inline;}
	.st3{fill:#FFFFFF;}
	.st4{fill:none;stroke:#7950DC;stroke-width:15;stroke-miterlimit:10;}
	.st5{fill:#7950DC;}
</style>
<g id="Camada_2" class="st0">
	<rect class="st1" width="1417" height="1417"/>
</g>
<g id="Camada_1" class="st0">
	<g class="st2">
		<path class="st3" d="M533.83,916.1h-63.94c-13.19,0-23.98-10.61-23.98-23.58V525.08c0-12.97,10.79-23.58,23.98-23.58h63.94
			c13.19,0,23.98,10.61,23.98,23.58v4.35c17.98-24.93,39.96-28.93,89.91-28.93v103.9c-47.95,0-89.91,30.29-89.91,83.77v204.35
			C557.81,905.49,547.02,916.1,533.83,916.1z"/>
		<path class="st3" d="M859.52,704.3v187.82c0,13.19,10.79,23.98,23.98,23.98h63.94c13.19,0,23.98-10.79,23.98-23.98V704.3
			c0-119.88-91.91-203.8-211.8-203.8v103.9C823.55,604.4,859.52,638.37,859.52,704.3z"/>
		<path class="st3" d="M648.08,604.4c-0.22,1.3-0.36,2.63-0.36,4v283.73c0,13.19,10.79,23.98,23.98,23.98h63.94
			c13.19,0,23.98-10.79,23.98-23.98V608.4c0-1.36-0.14-2.69-0.36-4H648.08z"/>
	</g>
	<g class="st2">
		<path class="st3" d="M454.07,980.32l-7.61-30.02h4.1l3.56,15.19c0.89,3.74,1.69,7.48,2.23,10.38h0.09
			c0.49-2.98,1.43-6.55,2.45-10.42l4.01-15.14h4.05l3.65,15.23c0.85,3.56,1.65,7.13,2.09,10.29h0.09c0.62-3.3,1.47-6.64,2.41-10.38
			l3.96-15.14h3.96l-8.51,30.02h-4.05l-3.79-15.63c-0.94-3.83-1.56-6.77-1.96-9.8h-0.09c-0.53,2.98-1.2,5.92-2.32,9.8l-4.28,15.63
			H454.07z"/>
		<path class="st3" d="M524.66,966.25h-11.67v10.82h13v3.25h-16.88v-30.02h16.21v3.25h-12.34v9.49h11.67V966.25z"/>
		<path class="st3" d="M553.29,950.71c1.69-0.36,4.36-0.62,7.08-0.62c3.87,0,6.37,0.67,8.24,2.18c1.56,1.16,2.49,2.94,2.49,5.3
			c0,2.89-1.92,5.43-5.08,6.59v0.09c2.85,0.71,6.19,3.07,6.19,7.53c0,2.58-1.02,4.54-2.54,6.01c-2.09,1.92-5.48,2.81-10.38,2.81
			c-2.67,0-4.72-0.18-6.01-0.36V950.71z M557.17,963h3.52c4.1,0,6.5-2.14,6.5-5.03c0-3.52-2.67-4.9-6.59-4.9
			c-1.78,0-2.81,0.13-3.43,0.27V963z M557.17,977.38c0.76,0.13,1.87,0.18,3.25,0.18c4.01,0,7.7-1.47,7.7-5.83
			c0-4.1-3.52-5.79-7.75-5.79h-3.21V977.38z"/>
		<path class="st3" d="M631.41,950.71c2.36-0.36,5.17-0.62,8.24-0.62c5.57,0,9.53,1.29,12.16,3.74c2.67,2.45,4.23,5.92,4.23,10.78
			c0,4.9-1.51,8.91-4.32,11.67c-2.81,2.81-7.44,4.32-13.27,4.32c-2.76,0-5.08-0.13-7.04-0.36V950.71z M635.28,977.25
			c0.98,0.18,2.41,0.22,3.92,0.22c8.28,0,12.78-4.63,12.78-12.74c0.04-7.08-3.96-11.58-12.16-11.58c-2,0-3.52,0.18-4.54,0.4V977.25z
			"/>
		<path class="st3" d="M698.88,966.25h-11.67v10.82h13v3.25h-16.88v-30.02h16.21v3.25h-12.34v9.49h11.67V966.25z"/>
		<path class="st3" d="M726.98,975.6c1.74,1.07,4.28,1.96,6.95,1.96c3.96,0,6.28-2.09,6.28-5.12c0-2.81-1.6-4.41-5.66-5.97
			c-4.9-1.74-7.93-4.28-7.93-8.51c0-4.68,3.88-8.15,9.71-8.15c3.07,0,5.3,0.71,6.64,1.47l-1.07,3.16c-0.98-0.53-2.98-1.43-5.7-1.43
			c-4.1,0-5.66,2.45-5.66,4.5c0,2.81,1.83,4.19,5.97,5.79c5.08,1.96,7.66,4.41,7.66,8.82c0,4.63-3.43,8.64-10.51,8.64
			c-2.9,0-6.06-0.85-7.66-1.92L726.98,975.6z"/>
		<path class="st3" d="M775.62,950.31v30.02h-3.87v-30.02H775.62z"/>
		<path class="st3" d="M827.5,978.99c-1.74,0.62-5.17,1.65-9.22,1.65c-4.54,0-8.28-1.16-11.22-3.96c-2.58-2.49-4.19-6.5-4.19-11.18
			c0.04-8.95,6.19-15.5,16.25-15.5c3.47,0,6.19,0.76,7.48,1.38l-0.94,3.16c-1.6-0.71-3.61-1.29-6.64-1.29
			c-7.3,0-12.07,4.54-12.07,12.07c0,7.62,4.59,12.11,11.58,12.11c2.54,0,4.28-0.36,5.17-0.8v-8.95h-6.1v-3.12h9.89V978.99z"/>
		<path class="st3" d="M855.7,980.32v-30.02h4.23l9.62,15.19c2.23,3.52,3.96,6.68,5.39,9.75l0.09-0.04
			c-0.36-4.01-0.45-7.66-0.45-12.34v-12.56h3.65v30.02h-3.92l-9.53-15.23c-2.09-3.34-4.1-6.77-5.61-10.02l-0.13,0.04
			c0.22,3.79,0.31,7.39,0.31,12.38v12.83H855.7z"/>
		<path class="st3" d="M922.81,966.25h-11.67v10.82h13v3.25h-16.88v-30.02h16.21v3.25h-12.34v9.49h11.67V966.25z"/>
		<path class="st3" d="M951.45,950.71c1.96-0.4,4.77-0.62,7.44-0.62c4.14,0,6.81,0.76,8.68,2.45c1.51,1.34,2.36,3.38,2.36,5.7
			c0,3.96-2.49,6.59-5.66,7.66v0.13c2.32,0.8,3.7,2.94,4.41,6.06c0.98,4.19,1.69,7.08,2.32,8.24h-4.01c-0.49-0.85-1.16-3.43-2-7.17
			c-0.89-4.14-2.49-5.7-6.01-5.83h-3.65v13h-3.87V950.71z M955.32,964.38h3.96c4.14,0,6.77-2.27,6.77-5.7c0-3.88-2.81-5.57-6.9-5.61
			c-1.87,0-3.21,0.18-3.83,0.36V964.38z"/>
	</g>
</g>
<g id="Camada_3">
	<g>
		<path class="st4" d="M533.83,916.46h-63.94c-13.19,0-23.98-10.61-23.98-23.58V525.44c0-12.97,10.79-23.58,23.98-23.58h63.94
			c13.19,0,23.98,10.61,23.98,23.58v4.35c17.98-24.93,39.96-28.93,89.91-28.93v103.9c-47.95,0-89.91,30.29-89.91,83.77v204.35
			C557.81,905.85,547.02,916.46,533.83,916.46z"/>
		<path class="st4" d="M859.52,704.67v187.82c0,13.19,10.79,23.98,23.98,23.98h63.94c13.19,0,23.98-10.79,23.98-23.98V704.67
			c0-119.88-91.91-203.8-211.8-203.8v103.9C823.55,604.76,859.52,638.73,859.52,704.67z"/>
		<path class="st4" d="M648.08,604.76c-0.22,1.3-0.36,2.63-0.36,4v283.73c0,13.19,10.79,23.98,23.98,23.98h63.94
			c13.19,0,23.98-10.79,23.98-23.98V608.76c0-1.36-0.14-2.69-0.36-4H648.08z"/>
	</g>
	<g>
		<path class="st5" d="M454.07,990.32l-7.61-30.02h4.1l3.56,15.19c0.89,3.74,1.69,7.48,2.23,10.38h0.09
			c0.49-2.98,1.43-6.55,2.45-10.42l4.01-15.14h4.05l3.65,15.23c0.85,3.56,1.65,7.13,2.09,10.29h0.09c0.62-3.3,1.47-6.64,2.41-10.38
			l3.96-15.14h3.96l-8.51,30.02h-4.05l-3.79-15.63c-0.94-3.83-1.56-6.77-1.96-9.8h-0.09c-0.53,2.98-1.2,5.92-2.32,9.8l-4.28,15.63
			H454.07z"/>
		<path class="st5" d="M524.66,976.25h-11.67v10.82h13v3.25h-16.88v-30.02h16.21v3.25h-12.34v9.49h11.67V976.25z"/>
		<path class="st5" d="M553.29,960.71c1.69-0.36,4.36-0.62,7.08-0.62c3.87,0,6.37,0.67,8.24,2.18c1.56,1.16,2.49,2.94,2.49,5.3
			c0,2.89-1.92,5.43-5.08,6.59v0.09c2.85,0.71,6.19,3.07,6.19,7.53c0,2.58-1.02,4.54-2.54,6.01c-2.09,1.92-5.48,2.81-10.38,2.81
			c-2.67,0-4.72-0.18-6.01-0.36V960.71z M557.17,973h3.52c4.1,0,6.5-2.14,6.5-5.03c0-3.52-2.67-4.9-6.59-4.9
			c-1.78,0-2.81,0.13-3.43,0.27V973z M557.17,987.38c0.76,0.13,1.87,0.18,3.25,0.18c4.01,0,7.7-1.47,7.7-5.83
			c0-4.1-3.52-5.79-7.75-5.79h-3.21V987.38z"/>
		<path class="st5" d="M631.41,960.71c2.36-0.36,5.17-0.62,8.24-0.62c5.57,0,9.53,1.29,12.16,3.74c2.67,2.45,4.23,5.92,4.23,10.78
			c0,4.9-1.51,8.91-4.32,11.67c-2.81,2.81-7.44,4.32-13.27,4.32c-2.76,0-5.08-0.13-7.04-0.36V960.71z M635.28,987.25
			c0.98,0.18,2.41,0.22,3.92,0.22c8.28,0,12.78-4.63,12.78-12.74c0.04-7.08-3.96-11.58-12.16-11.58c-2,0-3.52,0.18-4.54,0.4V987.25z
			"/>
		<path class="st5" d="M698.88,976.25h-11.67v10.82h13v3.25h-16.88v-30.02h16.21v3.25h-12.34v9.49h11.67V976.25z"/>
		<path class="st5" d="M726.98,985.6c1.74,1.07,4.28,1.96,6.95,1.96c3.96,0,6.28-2.09,6.28-5.12c0-2.81-1.6-4.41-5.66-5.97
			c-4.9-1.74-7.93-4.28-7.93-8.51c0-4.68,3.88-8.15,9.71-8.15c3.07,0,5.3,0.71,6.64,1.47l-1.07,3.16c-0.98-0.53-2.98-1.43-5.7-1.43
			c-4.1,0-5.66,2.45-5.66,4.5c0,2.81,1.83,4.19,5.97,5.79c5.08,1.96,7.66,4.41,7.66,8.82c0,4.63-3.43,8.64-10.51,8.64
			c-2.9,0-6.06-0.85-7.66-1.92L726.98,985.6z"/>
		<path class="st5" d="M775.62,960.31v30.02h-3.87v-30.02H775.62z"/>
		<path class="st5" d="M827.5,988.99c-1.74,0.62-5.17,1.65-9.22,1.65c-4.54,0-8.28-1.16-11.22-3.96c-2.58-2.49-4.19-6.5-4.19-11.18
			c0.04-8.95,6.19-15.5,16.25-15.5c3.47,0,6.19,0.76,7.48,1.38l-0.94,3.16c-1.6-0.71-3.61-1.29-6.64-1.29
			c-7.3,0-12.07,4.54-12.07,12.07c0,7.62,4.59,12.11,11.58,12.11c2.54,0,4.28-0.36,5.17-0.8v-8.95h-6.1v-3.12h9.89V988.99z"/>
		<path class="st5" d="M855.7,990.32v-30.02h4.23l9.62,15.19c2.23,3.52,3.96,6.68,5.39,9.75l0.09-0.04
			c-0.36-4.01-0.45-7.66-0.45-12.34v-12.56h3.65v30.02h-3.92l-9.53-15.23c-2.09-3.34-4.1-6.77-5.61-10.02l-0.13,0.04
			c0.22,3.79,0.31,7.39,0.31,12.38v12.83H855.7z"/>
		<path class="st5" d="M922.81,976.25h-11.67v10.82h13v3.25h-16.88v-30.02h16.21v3.25h-12.34v9.49h11.67V976.25z"/>
		<path class="st5" d="M951.45,960.71c1.96-0.4,4.77-0.62,7.44-0.62c4.14,0,6.81,0.76,8.68,2.45c1.51,1.34,2.36,3.38,2.36,5.7
			c0,3.96-2.49,6.59-5.66,7.66v0.13c2.32,0.8,3.7,2.94,4.41,6.06c0.98,4.19,1.69,7.08,2.32,8.24h-4.01c-0.49-0.85-1.16-3.43-2-7.17
			c-0.89-4.14-2.49-5.7-6.01-5.83h-3.65v13h-3.87V960.71z M955.32,974.38h3.96c4.14,0,6.77-2.27,6.77-5.7c0-3.88-2.81-5.57-6.9-5.61
			c-1.87,0-3.21,0.18-3.83,0.36V974.38z"/>
	</g>
</g>
</svg>
