<?xml version="1.0" encoding="utf-8"?>
<!-- Generator: Adobe Illustrator 23.0.0, SVG Export Plug-In . SVG Version: 6.00 Build 0)  -->
<svg version="1.1" xmlns="http://www.w3.org/2000/svg" xmlns:xlink="http://www.w3.org/1999/xlink" x="0px" y="0px"
	 width="535.49px" height="494.91px" viewBox="0 0 535.49 494.91" style="enable-background:new 0 0 535.49 494.91;"
	 xml:space="preserve">
<style type="text/css">
	.st0{display:none;}
	.st1{display:inline;fill:#313030;}
	.st2{display:inline;}
	.st3{fill:#FFFFFF;}
	.st4{fill:none;stroke:#7950DC;stroke-width:10;stroke-miterlimit:10;}
	.st5{fill:#7950DC;}
</style>
<g id="Camada_2" class="st0">
	<rect x="-440.91" y="-495.86" class="st1" width="1417" height="1417"/>
</g>
<g id="Camada_1" class="st0">
	<g class="st2">
		<path class="st3" d="M92.92,420.24H28.98C15.79,420.24,5,409.63,5,396.66V29.22C5,16.25,15.79,5.64,28.98,5.64h63.94
			c13.19,0,23.98,10.61,23.98,23.58v4.35c17.98-24.93,39.96-28.93,89.91-28.93v103.9c-47.95,0-89.91,30.29-89.91,83.77v204.35
			C116.89,409.63,106.1,420.24,92.92,420.24z"/>
		<path class="st3" d="M418.6,208.44v187.82c0,13.19,10.79,23.98,23.98,23.98h63.94c13.19,0,23.98-10.79,23.98-23.98V208.44
			c0-119.88-91.91-203.8-211.8-203.8v103.9C382.64,108.54,418.6,142.51,418.6,208.44z"/>
		<path class="st3" d="M207.17,108.54c-0.22,1.3-0.36,2.63-0.36,4v283.73c0,13.19,10.79,23.98,23.98,23.98h63.94
			c13.19,0,23.98-10.79,23.98-23.98V112.54c0-1.36-0.14-2.69-0.36-4H207.17z"/>
	</g>
	<g class="st2">
		<path class="st3" d="M13.15,484.46l-7.61-30.02h4.1l3.56,15.19c0.89,3.74,1.69,7.48,2.23,10.38h0.09
			c0.49-2.98,1.43-6.55,2.45-10.42l4.01-15.14h4.05l3.65,15.23c0.85,3.56,1.65,7.13,2.09,10.29h0.09c0.62-3.3,1.47-6.64,2.41-10.38
			l3.96-15.14h3.96l-8.51,30.02h-4.05l-3.79-15.63c-0.94-3.83-1.56-6.77-1.96-9.8H23.8c-0.53,2.98-1.2,5.92-2.32,9.8l-4.28,15.63
			H13.15z"/>
		<path class="st3" d="M83.74,470.39H72.07v10.82h13v3.25H68.2v-30.02h16.21v3.25H72.07v9.49h11.67V470.39z"/>
		<path class="st3" d="M112.38,454.85c1.69-0.36,4.36-0.62,7.08-0.62c3.87,0,6.37,0.67,8.24,2.18c1.56,1.16,2.49,2.94,2.49,5.3
			c0,2.89-1.92,5.43-5.08,6.59v0.09c2.85,0.71,6.19,3.07,6.19,7.53c0,2.58-1.02,4.54-2.54,6.01c-2.09,1.92-5.48,2.81-10.38,2.81
			c-2.67,0-4.72-0.18-6.01-0.36V454.85z M116.25,467.14h3.52c4.1,0,6.5-2.14,6.5-5.03c0-3.52-2.67-4.9-6.59-4.9
			c-1.78,0-2.81,0.13-3.43,0.27V467.14z M116.25,481.52c0.76,0.13,1.87,0.18,3.25,0.18c4.01,0,7.7-1.47,7.7-5.83
			c0-4.1-3.52-5.79-7.75-5.79h-3.21V481.52z"/>
		<path class="st3" d="M190.5,454.85c2.36-0.36,5.17-0.62,8.24-0.62c5.57,0,9.53,1.29,12.16,3.74c2.67,2.45,4.23,5.92,4.23,10.78
			c0,4.9-1.51,8.91-4.32,11.67c-2.81,2.81-7.44,4.32-13.27,4.32c-2.76,0-5.08-0.13-7.04-0.36V454.85z M194.37,481.39
			c0.98,0.18,2.41,0.22,3.92,0.22c8.28,0,12.78-4.63,12.78-12.74c0.04-7.08-3.96-11.58-12.16-11.58c-2,0-3.52,0.18-4.54,0.4V481.39z
			"/>
		<path class="st3" d="M257.97,470.39H246.3v10.82h13v3.25h-16.88v-30.02h16.21v3.25H246.3v9.49h11.67V470.39z"/>
		<path class="st3" d="M286.07,479.74c1.74,1.07,4.28,1.96,6.95,1.96c3.96,0,6.28-2.09,6.28-5.12c0-2.81-1.6-4.41-5.66-5.97
			c-4.9-1.74-7.93-4.28-7.93-8.51c0-4.68,3.88-8.15,9.71-8.15c3.07,0,5.3,0.71,6.64,1.47l-1.07,3.16c-0.98-0.53-2.98-1.43-5.7-1.43
			c-4.1,0-5.66,2.45-5.66,4.5c0,2.81,1.83,4.19,5.97,5.79c5.08,1.96,7.66,4.41,7.66,8.82c0,4.63-3.43,8.64-10.51,8.64
			c-2.9,0-6.06-0.85-7.66-1.92L286.07,479.74z"/>
		<path class="st3" d="M334.7,454.45v30.02h-3.87v-30.02H334.7z"/>
		<path class="st3" d="M386.59,483.13c-1.74,0.62-5.17,1.65-9.22,1.65c-4.54,0-8.28-1.16-11.22-3.96c-2.58-2.49-4.19-6.5-4.19-11.18
			c0.04-8.95,6.19-15.5,16.25-15.5c3.47,0,6.19,0.76,7.48,1.38l-0.94,3.16c-1.6-0.71-3.61-1.29-6.64-1.29
			c-7.3,0-12.07,4.54-12.07,12.07c0,7.62,4.59,12.11,11.58,12.11c2.54,0,4.28-0.36,5.17-0.8v-8.95h-6.1v-3.12h9.89V483.13z"/>
		<path class="st3" d="M414.78,484.46v-30.02h4.23l9.62,15.19c2.23,3.52,3.96,6.68,5.39,9.75l0.09-0.04
			c-0.36-4.01-0.45-7.66-0.45-12.34v-12.56h3.65v30.02h-3.92l-9.53-15.23c-2.09-3.34-4.1-6.77-5.61-10.02l-0.13,0.04
			c0.22,3.79,0.31,7.39,0.31,12.38v12.83H414.78z"/>
		<path class="st3" d="M481.9,470.39h-11.67v10.82h13v3.25h-16.88v-30.02h16.21v3.25h-12.34v9.49h11.67V470.39z"/>
		<path class="st3" d="M510.54,454.85c1.96-0.4,4.77-0.62,7.44-0.62c4.14,0,6.81,0.76,8.68,2.45c1.51,1.34,2.36,3.38,2.36,5.7
			c0,3.96-2.49,6.59-5.66,7.66v0.13c2.32,0.8,3.7,2.94,4.41,6.06c0.98,4.19,1.69,7.08,2.32,8.24h-4.01c-0.49-0.85-1.16-3.43-2-7.17
			c-0.89-4.14-2.49-5.7-6.01-5.83h-3.65v13h-3.87V454.85z M514.41,468.52h3.96c4.14,0,6.77-2.27,6.77-5.7c0-3.88-2.81-5.57-6.9-5.61
			c-1.87,0-3.21,0.18-3.83,0.36V468.52z"/>
	</g>
</g>
<g id="Camada_3">
	<g>
		<g>
			<path class="st4" d="M92.92,420.6H28.98C15.79,420.6,5,409.99,5,397.02V29.58C5,16.61,15.79,6,28.98,6h63.94
				c13.19,0,23.98,10.61,23.98,23.58v4.35C134.88,9,156.85,5,206.81,5v103.9c-47.95,0-89.91,30.29-89.91,83.77v204.35
				C116.89,409.99,106.1,420.6,92.92,420.6z"/>
			<path class="st4" d="M418.6,208.8v187.82c0,13.19,10.79,23.98,23.98,23.98h63.94c13.19,0,23.98-10.79,23.98-23.98V208.8
				C530.49,88.92,438.58,5,318.7,5v103.9C382.64,108.9,418.6,142.87,418.6,208.8z"/>
			<path class="st4" d="M207.17,108.9c-0.22,1.3-0.36,2.63-0.36,4v283.73c0,13.19,10.79,23.98,23.98,23.98h63.94
				c13.19,0,23.98-10.79,23.98-23.98V112.9c0-1.36-0.14-2.69-0.36-4H207.17z"/>
		</g>
		<g>
			<path class="st5" d="M13.15,494.46l-7.61-30.02h4.1l3.56,15.19c0.89,3.74,1.69,7.48,2.23,10.38h0.09
				c0.49-2.98,1.43-6.55,2.45-10.42l4.01-15.14h4.05l3.65,15.23c0.85,3.56,1.65,7.13,2.09,10.29h0.09c0.62-3.3,1.47-6.64,2.41-10.38
				l3.96-15.14h3.96l-8.51,30.02h-4.05l-3.79-15.63c-0.94-3.83-1.56-6.77-1.96-9.8H23.8c-0.53,2.98-1.2,5.92-2.32,9.8l-4.28,15.63
				H13.15z"/>
			<path class="st5" d="M83.74,480.39H72.07v10.82h13v3.25H68.2v-30.02h16.21v3.25H72.07v9.49h11.67V480.39z"/>
			<path class="st5" d="M112.38,464.85c1.69-0.36,4.36-0.62,7.08-0.62c3.87,0,6.37,0.67,8.24,2.18c1.56,1.16,2.49,2.94,2.49,5.3
				c0,2.89-1.92,5.43-5.08,6.59v0.09c2.85,0.71,6.19,3.07,6.19,7.53c0,2.58-1.02,4.54-2.54,6.01c-2.09,1.92-5.48,2.81-10.38,2.81
				c-2.67,0-4.72-0.18-6.01-0.36V464.85z M116.25,477.14h3.52c4.1,0,6.5-2.14,6.5-5.03c0-3.52-2.67-4.9-6.59-4.9
				c-1.78,0-2.81,0.13-3.43,0.27V477.14z M116.25,491.52c0.76,0.13,1.87,0.18,3.25,0.18c4.01,0,7.7-1.47,7.7-5.83
				c0-4.1-3.52-5.79-7.75-5.79h-3.21V491.52z"/>
			<path class="st5" d="M190.5,464.85c2.36-0.36,5.17-0.62,8.24-0.62c5.57,0,9.53,1.29,12.16,3.74c2.67,2.45,4.23,5.92,4.23,10.78
				c0,4.9-1.51,8.91-4.32,11.67c-2.81,2.81-7.44,4.32-13.27,4.32c-2.76,0-5.08-0.13-7.04-0.36V464.85z M194.37,491.39
				c0.98,0.18,2.41,0.22,3.92,0.22c8.28,0,12.78-4.63,12.78-12.74c0.04-7.08-3.96-11.58-12.16-11.58c-2,0-3.52,0.18-4.54,0.4V491.39
				z"/>
			<path class="st5" d="M257.97,480.39H246.3v10.82h13v3.25h-16.88v-30.02h16.21v3.25H246.3v9.49h11.67V480.39z"/>
			<path class="st5" d="M286.07,489.74c1.74,1.07,4.28,1.96,6.95,1.96c3.96,0,6.28-2.09,6.28-5.12c0-2.81-1.6-4.41-5.66-5.97
				c-4.9-1.74-7.93-4.28-7.93-8.51c0-4.68,3.88-8.15,9.71-8.15c3.07,0,5.3,0.71,6.64,1.47l-1.07,3.16c-0.98-0.53-2.98-1.43-5.7-1.43
				c-4.1,0-5.66,2.45-5.66,4.5c0,2.81,1.83,4.19,5.97,5.79c5.08,1.96,7.66,4.41,7.66,8.82c0,4.63-3.43,8.64-10.51,8.64
				c-2.9,0-6.06-0.85-7.66-1.92L286.07,489.74z"/>
			<path class="st5" d="M334.7,464.45v30.02h-3.87v-30.02H334.7z"/>
			<path class="st5" d="M386.59,493.13c-1.74,0.62-5.17,1.65-9.22,1.65c-4.54,0-8.28-1.16-11.22-3.96
				c-2.58-2.49-4.19-6.5-4.19-11.18c0.04-8.95,6.19-15.5,16.25-15.5c3.47,0,6.19,0.76,7.48,1.38l-0.94,3.16
				c-1.6-0.71-3.61-1.29-6.64-1.29c-7.3,0-12.07,4.54-12.07,12.07c0,7.62,4.59,12.11,11.58,12.11c2.54,0,4.28-0.36,5.17-0.8v-8.95
				h-6.1v-3.12h9.89V493.13z"/>
			<path class="st5" d="M414.78,494.46v-30.02h4.23l9.62,15.19c2.23,3.52,3.96,6.68,5.39,9.75l0.09-0.04
				c-0.36-4.01-0.45-7.66-0.45-12.34v-12.56h3.65v30.02h-3.92l-9.53-15.23c-2.09-3.34-4.1-6.77-5.61-10.02l-0.13,0.04
				c0.22,3.79,0.31,7.39,0.31,12.38v12.83H414.78z"/>
			<path class="st5" d="M481.9,480.39h-11.67v10.82h13v3.25h-16.88v-30.02h16.21v3.25h-12.34v9.49h11.67V480.39z"/>
			<path class="st5" d="M510.54,464.85c1.96-0.4,4.77-0.62,7.44-0.62c4.14,0,6.81,0.76,8.68,2.45c1.51,1.34,2.36,3.38,2.36,5.7
				c0,3.96-2.49,6.59-5.66,7.66v0.13c2.32,0.8,3.7,2.94,4.41,6.06c0.98,4.19,1.69,7.08,2.32,8.24h-4.01c-0.49-0.85-1.16-3.43-2-7.17
				c-0.89-4.14-2.49-5.7-6.01-5.83h-3.65v13h-3.87V464.85z M514.41,478.52h3.96c4.14,0,6.77-2.27,6.77-5.7
				c0-3.88-2.81-5.57-6.9-5.61c-1.87,0-3.21,0.18-3.83,0.36V478.52z"/>
		</g>
	</g>
</g>
</svg>
