<?xml version="1.0" encoding="utf-8"?>
<!-- Generator: Adobe Illustrator 19.0.0, SVG Export Plug-In . SVG Version: 6.00 Build 0)  -->
<svg version="1.1" id="Layer_1" xmlns="http://www.w3.org/2000/svg" xmlns:xlink="http://www.w3.org/1999/xlink" x="0px" y="0px"
	 viewBox="0 0 1415.6 643.8" style="enable-background:new 0 0 1415.6 643.8;" xml:space="preserve">
<style type="text/css">
	.st0{fill:url(#XMLID_2_);}
	.st1{fill:#5362A4;}
</style>
<linearGradient id="XMLID_2_" gradientUnits="userSpaceOnUse" x1="-2.788241e-006" y1="321.875" x2="1415.5881" y2="321.875">
	<stop  offset="0" style="stop-color:#5362A4"/>
	<stop  offset="0.1245" style="stop-color:#5264A5"/>
	<stop  offset="0.2852" style="stop-color:#516BAA"/>
	<stop  offset="0.4658" style="stop-color:#4F77B2"/>
	<stop  offset="0.6609" style="stop-color:#4C87BC"/>
	<stop  offset="0.8654" style="stop-color:#469AC9"/>
	<stop  offset="1" style="stop-color:#3EA5CE"/>
</linearGradient>
<path id="XMLID_3_" class="st0" d="M1415.6,629.8V9.5c0-7.4-4-9.2-11.4-9.5h-137.6c-5.7,0-8.4,2.5-10.4,10.4l-87.5,344.2L1079,8.3
	L1072,0H930.1l-9.2,8.9v510.5h-88.5c3.4-13.7,5.4-28.5,5.9-44.4V166.7c0-101.9-94-166.4-170.7-166.4H466.1
	c-7.6-0.1-10.4,3.7-10.4,9.8v511l24.6,1.2V24.9l187.3-0.6c72.5,1.2,143.7,66.9,145.5,141.9L812.5,475c-0.6,15.5-3,30.4-7.2,44.4
	H588.2V122.8l69.6-0.3c24.3,0.3,45.8,25.8,45.8,51v238.3h26.7V173.5c0-41.8-38.4-74-72.5-75.5h-79.2c-12.4,0.2-17.5,4.2-17,11.1
	v420.7c-0.1,11.4,5.3,15.7,13.4,16.4h219.4c-21.9,40.4-64.2,68.3-131.4,72.6l-305.7-0.3l-78.6-200.5c59-26,89.7-73.4,92.1-142.2
	v-117C362.9,58.8,298.2,3.7,205.1,0.3H15.4C3.1,0.3,0,4.3,0,10.9v14.4v592.3c-0.1,18,6,25.7,24,25.6H108
	c24.6,0.3,27.6-5.5,27.6-25.8V434.2l4.7,0L211,620h28.9l-85.7-208.5h-33.5c-10.8,0-12.7,9-12.7,22.7v183.2l-83.4,0.2V25.3l180.2,0.2
	c75.5,4.3,130.5,44.5,139.7,133.3l0.3,116.7c-3.1,57.7-25.8,103.1-86.9,124.4c-7.2,3.4-8.4,8.1-5.2,16l82.9,218.3
	c2.3,5.8,4.5,9.2,10.7,9.1h316.4c72.6,0,133.7-33.8,160.7-97h114.2c7,0.5,9.4-4.1,9.8-10.9V23.9l109.6,0.3l99.5,383.8
	c1.5,9.8,20.9,9.8,23.3,0l99.8-383.5l109.9,0.3v593.3h-83.1V312h-25.8L1211.4,619h-86.6l-70-307.1h-26.7v305.4h-82v24.9h100
	c6.7-0.4,8.7-5.4,8.8-12.4V423.1l49.4,213.7c1.6,5.7,5.3,7.3,10.1,6.8h109c5.8,0.8,9-2.6,10.4-8.6l47.1-212.5v207.3
	c-0.3,8.7,2.2,13.7,8.4,13.8h114.8C1415,643.9,1415.7,639.6,1415.6,629.8z"/>
<path id="XMLID_22_" class="st1" d="M260.2,161.4c-2.9-40.1-26.4-60.6-67.7-64.5h-73.2c-6,0.9-9.7,4.2-9.7,11.5v219.6
	c0.4,5.9,3.4,8.9,9.7,8.4h82.9c28.7-2.6,58-32.1,58-60.8V161.4z M236.3,275.6c-0.8,16.7-19.5,34.5-34.1,35.5h-68.6V121.3h59
	c20.9,0.6,43.8,12.9,43.8,40.1V275.6z"/>
</svg>
