<?xml version="1.0" encoding="utf-8"?>
<!-- Generator: Adobe Illustrator 19.0.0, SVG Export Plug-In . SVG Version: 6.00 Build 0)  -->
<svg version="1.1" id="Camada_1" xmlns="http://www.w3.org/2000/svg" xmlns:xlink="http://www.w3.org/1999/xlink" x="0px" y="0px"
	 width="1278.1px" height="285.9px" viewBox="0 0 1278.1 285.9" enable-background="new 0 0 1278.1 285.9" xml:space="preserve">
<g id="XMLID_1_">
	<g id="XMLID_2_">
		<g id="XMLID_3_">
			<path id="XMLID_90_" fill="#A8A8A9" d="M1007.8,86.5c1.6-2.4,2.5-5.3,2.5-8.5c0-8.8-7.2-16-16.2-16s-16.3,7.1-16.4,15.9
				c0,12.4,11.1,24.7,7.6,39.4c-13.5,41.3-42.2,55.7-43.3,84.9c-0.6,15.5,12.7,30.5,28.5,30.5c15.8,0.1,28.7-14.8,28.8-30.3
				c0.1-23.1-14.6-50.3-12.1-83.7C988.8,106.1,1002.1,97.7,1007.8,86.5z M983.7,83.6c-1.4-1.4-2.4-3.9-2.4-6.8
				c0-3.7,1.7-6.9,3.9-7.6c-1.5,1.6-2.5,4.8-2.5,8.3C982.6,79.9,983,82,983.7,83.6z M990.6,183.5c3.3,4,5,10.9,3.9,18.5
				c-1.3,9.7-6.7,17.3-12.6,18.5c4.4-3.8,8-11.6,9.3-20.9C992,193.7,991.7,188.1,990.6,183.5z"/>
			<path id="XMLID_4_" fill="#A8A8A9" d="M448.9,104c6.5,2.1,9.7,6.5,9.7,13.3v0.6c0,4.7-1.9,8.3-5.6,11.1c-2.6,1.8-5.3,2.7-8,2.7
				c-1.4,0-2.9-0.2-4.5-0.7c-3.7-1.2-7.6-1.8-11.6-1.8c-10.5,0-19.5,3.7-26.9,11.1c-7.3,7.4-11,16.4-11,26.9
				c0,10.4,3.7,19.4,11,26.8c7.4,7.4,16.4,11.1,26.9,11.1c4,0,7.8-0.6,11.6-1.8c1.4-0.5,2.9-0.7,4.3-0.7c2.8,0,5.5,0.9,8.1,2.7
				c3.7,2.7,5.6,6.5,5.6,11.2c0,6.7-3.2,11.1-9.7,13.3c-6.4,2-13,3-19.9,3c-18.1,0-33.7-6.4-46.5-19.3
				c-12.9-12.9-19.3-28.4-19.3-46.5c0-18.1,6.4-33.7,19.3-46.5c12.9-12.9,28.4-19.3,46.5-19.3C435.9,101,442.5,102,448.9,104z"/>
			<path id="XMLID_7_" fill="#A8A8A9" d="M535,101c3.8,0,7.1,1.4,9.8,4.1c2.7,2.7,4,6,4,9.8v0.2c0,3.8-1.3,7.1-4,9.7
				c-2.7,2.7-6,4.1-9.8,4.1h-6.5c-6.3,0-11.6,2.2-15.9,6.5c-4.3,4.3-6.4,9.6-6.5,15.9v67.5c0,3.9-1.4,7.1-4.1,9.7
				c-2.7,2.7-6,4.1-9.7,4.1h-0.3c-3.7,0-7-1.4-9.7-4.1c-2.7-2.6-4.1-5.8-4.1-9.7v-67.5c0.2-14,5.1-25.8,14.8-35.7
				c9.8-9.8,21.7-14.8,35.7-14.8H535z"/>
			<path id="XMLID_11_" fill="#A8A8A9" d="M683.7,139.4c0.9,1.9,1.4,3.9,1.4,5.8c0,1.6-0.3,3.2-0.9,4.8c-1.3,3.6-3.7,6.2-7.3,7.8
				c-10.7,4.8-24.7,11.1-42.1,19c-21.6,9.8-34.2,15.5-38,17.3c5.8,7.3,14.8,11,27.1,11c8.2,0,15.6-2.4,22.2-7.2
				c6.5-4.7,11-10.8,13.6-18.3c2.2-6.3,6.6-9.4,13.3-9.4c4.7,0,8.5,2,11.3,5.9c1.8,2.4,2.6,5,2.6,7.7c0,1.6-0.3,3.2-0.9,4.9
				c-4.5,13-12.4,23.6-23.7,31.6c-11.4,8.3-24.2,12.5-38.4,12.5c-18.1,0-33.7-6.4-46.5-19.3C564.5,200.5,558,185,558,166.8
				c0-18.1,6.4-33.7,19.3-46.5c12.9-12.9,28.4-19.3,46.5-19.3c13.1,0,25.1,3.6,35.9,10.7C670.5,118.7,678.5,127.9,683.7,139.4z
				 M623.9,129.2c-10.5,0-19.5,3.7-26.9,11.1c-7.3,7.4-11,16.4-11,26.9v0.8l63.9-28.7C644.3,132.6,635.6,129.2,623.9,129.2z"/>
			<path id="XMLID_14_" fill="#A8A8A9" d="M819.9,120.3c12.9,12.9,19.3,28.4,19.3,46.5v52c0,3.9-1.4,7.1-4.1,9.7
				c-2.7,2.7-6,4.1-9.7,4.1H825c-3.7,0-7-1.4-9.7-4.1c-2.7-2.6-4.1-5.8-4.1-9.7c-8.7,9.2-21.3,13.8-37.9,13.8
				c-18.1,0-33.7-6.4-46.5-19.3c-12.9-12.9-19.3-28.4-19.3-46.5c0-18.1,6.4-33.7,19.3-46.5c12.9-12.9,28.4-19.3,46.5-19.3
				C791.5,101,807,107.4,819.9,120.3z M746.5,140.1c-7.3,7.4-11,16.3-11,26.8c0,10.5,3.7,19.5,11,26.9c7.4,7.3,16.4,11,26.9,11
				c10.5,0,19.4-3.7,26.8-11c7.4-7.4,11.1-16.4,11.1-26.9c0-10.4-3.7-19.4-11.1-26.8c-7.4-7.4-16.3-11.1-26.8-11.1
				C762.8,129,753.9,132.7,746.5,140.1z"/>
			<path id="XMLID_17_" fill="#A8A8A9" d="M876.3,54.1c3.7,0,7,1.3,9.7,4c2.7,2.7,4.1,6,4.1,9.8v33h17.2c3.7,0,7,1.4,9.7,4.1
				c2.7,2.7,4.1,6,4.1,9.8v0.2c0,3.9-1.4,7.1-4.1,9.7c-2.7,2.7-6,4.1-9.7,4.1h-17.2v67.8c0,2.2,0.8,4.1,2.3,5.6
				c1.5,1.5,3.4,2.3,5.7,2.3h9.1c3.7,0,7,1.4,9.7,4.1c2.7,2.7,4.1,6,4.1,9.8v0.2c0,3.9-1.4,7.1-4.1,9.7c-2.7,2.7-6,4.1-9.7,4.1h-9.1
				c-9.9,0-18.4-3.5-25.5-10.5c-7-7.1-10.5-15.6-10.5-25.4V67.9c0-3.8,1.4-7.1,4.1-9.8c2.7-2.7,6-4,9.7-4H876.3z"/>
			<path id="XMLID_19_" fill="#A8A8A9" d="M1062.7,204.7l57.9,0.1c3.8,0,7.1,1.3,9.7,4c2.7,2.7,4.1,6,4.1,9.8v0.2
				c0,3.8-1.4,7.1-4.1,9.8c-2.7,2.7-5.9,4-9.7,4h-74.7c-9,0-15.3-4.2-18.9-12.7c-1.4-3.1-2.1-6.1-2.1-9c0-5.1,2.2-9.8,6.5-14.2
				c7.5-7.8,18.8-19.7,34.1-35.7c13.3-14,23.6-24.7,30.6-32.1h-52.8c-3.9,0-7.2-1.4-9.8-4.1c-2.7-2.7-4-6-4-9.7v-0.3
				c0-3.7,1.3-7,4-9.7c2.7-2.7,5.9-4.1,9.8-4.1h69.1c9.2,0,15.7,4.2,19.3,12.7c1.4,3.1,2.1,6.1,2.1,9c0,5.2-2.2,9.9-6.5,14.2
				C1102.6,162.8,1081.1,185.4,1062.7,204.7z"/>
			<path id="XMLID_21_" fill="#A8A8A9" d="M1274.9,139.4c0.9,1.9,1.4,3.9,1.4,5.8c0,1.6-0.3,3.2-0.9,4.8c-1.3,3.6-3.7,6.2-7.3,7.8
				c-10.7,4.8-24.7,11.1-42.1,19c-21.6,9.8-34.2,15.5-38,17.3c5.8,7.3,14.8,11,27.1,11c8.2,0,15.6-2.4,22.2-7.2
				c6.5-4.7,11-10.8,13.6-18.3c2.2-6.3,6.6-9.4,13.3-9.4c4.7,0,8.5,2,11.3,5.9c1.8,2.4,2.6,5,2.6,7.7c0,1.6-0.3,3.2-0.9,4.9
				c-4.5,13-12.4,23.6-23.7,31.6c-11.4,8.3-24.2,12.5-38.4,12.5c-18.1,0-33.7-6.4-46.5-19.3c-12.9-12.9-19.3-28.4-19.3-46.5
				c0-18.1,6.4-33.7,19.3-46.5c12.9-12.9,28.4-19.3,46.5-19.3c13.1,0,25.1,3.6,35.9,10.7C1261.8,118.7,1269.7,127.9,1274.9,139.4z
				 M1215.1,129.2c-10.5,0-19.5,3.7-26.9,11.1c-7.3,7.4-11,16.4-11,26.9v0.8l63.9-28.7C1235.5,132.6,1226.9,129.2,1215.1,129.2z"/>
			<g id="XMLID_24_">
				<path id="XMLID_36_" fill="#A8A8A9" d="M926.7,251.3h2.9"/>
			</g>
		</g>
		<g id="XMLID_6_">
			<path id="XMLID_25_" fill="#A8A8A9" d="M114.5,4.9c14.4-2.8,25,2.1,32.1,14.9l0.6,1.1c4.8,8.8,5.1,17.7,0.9,26.7
				c-3,6.1-7.1,10.6-12.3,13.5c-2.7,1.5-5.8,2.6-9.1,3.3c-8.3,1.6-16.2,4.4-23.7,8.5c-19.8,10.9-32.9,27.2-39.2,48.8
				c-6.1,21.5-3.8,42.2,7.1,62.1c10.8,19.7,27,32.7,48.4,39.1c21.6,6.3,42.3,4,62.2-6.9c7.5-4.1,14.1-9.2,19.9-15.4
				c2.3-2.4,4.8-4.3,7.5-5.8c5.3-2.9,11.4-4,18.2-3.2c9.9,1.3,17.3,6.4,22.2,15.3c7,12.7,5.4,24.3-4.6,35.1
				c-10,10.4-21.5,19.1-34.4,26.2c-34.2,18.8-70.1,22.7-107.8,11.8c-37.6-10.9-65.9-33.5-84.7-67.7C-1,177.9-4.9,142,6,104.3
				C17,66.7,39.6,38.5,73.8,19.7C86.7,12.5,100.3,7.6,114.5,4.9z"/>
			<path id="XMLID_27_" fill="#A8A8A9" d="M320.3,52.6c4.7-1,9.2-3.3,12.8-7c10.3-10.3,10.1-27.1-0.4-37.7
				C322.2-2.5,305.3-2.7,295,7.6c-14.3,14.5-15.8,41.8-37,55c-63.9,32.6-114.3,16-149.6,49.1c-18.7,17.5-20.6,50.5-2.1,69
				s50.9,16.1,69-2c27-26.9,41.5-76,83.2-112.1C275.2,53.4,300.5,59.1,320.3,52.6z M295.2,21.2c-0.1-3.3,1.7-7.4,5.1-10.7
				c4.4-4.3,10-6.1,13.4-4.4c-3.6,0.2-8.4,2.7-12.6,6.9C298.4,15.6,296.4,18.5,295.2,21.2z M187.1,146.2
				c-0.8,8.5-6.9,18.6-16.9,26.3c-12.9,9.9-28,12.5-36.3,7c9.5,0.6,22.9-4.3,35.2-13.7C177,159.8,183.2,152.9,187.1,146.2z"/>
		</g>
	</g>
	<g id="XMLID_9_">
		<path id="XMLID_31_" fill="#A8A8A9" d="M1016.2,267.7l-1.4,4.9h-4.5l5.8-19h5.6l5.9,19h-4.6l-1.5-4.9H1016.2z M1021,264.5l-1.2-4
			c-0.3-1.1-0.7-2.5-1-3.7h-0.1c-0.3,1.1-0.6,2.6-0.9,3.7l-1.1,4H1021z"/>
		<path id="XMLID_34_" fill="#A8A8A9" d="M1049.5,271.7c-1.3,0.5-3.8,1.1-6.3,1.1c-3.5,0-6-0.9-7.7-2.6c-1.7-1.6-2.7-4.1-2.7-6.9
			c0-6.3,4.6-9.9,10.9-9.9c2.5,0,4.3,0.5,5.3,0.9l-0.9,3.4c-1-0.5-2.3-0.8-4.4-0.8c-3.6,0-6.3,2-6.3,6.1c0,3.9,2.5,6.2,6,6.2
			c1,0,1.8-0.1,2.1-0.3v-4h-2.9v-3.4h7.1V271.7z"/>
		<path id="XMLID_37_" fill="#A8A8A9" d="M1067.6,264.6h-7v4.5h7.8v3.5h-12.1v-19h11.7v3.5h-7.4v3.9h7V264.6z M1063.9,249.1l2.8,3.5
			h-3l-1.4-1.7h-0.1l-1.4,1.7h-3l2.8-3.5H1063.9z"/>
		<path id="XMLID_40_" fill="#A8A8A9" d="M1074.8,272.6v-19h5l3.9,7c1.1,2,2.3,4.4,3.1,6.5h0.1c-0.3-2.5-0.4-5.1-0.4-7.9v-5.5h3.9
			v19h-4.5l-4.1-7.3c-1.1-2-2.4-4.5-3.3-6.7l-0.1,0c0.1,2.5,0.2,5.2,0.2,8.3v5.7H1074.8z"/>
		<path id="XMLID_42_" fill="#A8A8A9" d="M1111.6,272.1c-0.8,0.4-2.6,0.8-4.9,0.8c-6.6,0-9.9-4.1-9.9-9.5c0-6.5,4.6-10.1,10.4-10.1
			c2.2,0,3.9,0.5,4.7,0.8l-0.9,3.4c-0.9-0.4-2.1-0.7-3.6-0.7c-3.4,0-6.1,2.1-6.1,6.3c0,3.8,2.3,6.2,6.1,6.2c1.3,0,2.7-0.3,3.6-0.6
			L1111.6,272.1z"/>
		<path id="XMLID_44_" fill="#A8A8A9" d="M1122.1,253.6v19h-4.3v-19H1122.1z"/>
		<path id="XMLID_46_" fill="#A8A8A9" d="M1133.7,267.7l-1.4,4.9h-4.5l5.8-19h5.6l5.9,19h-4.6l-1.5-4.9H1133.7z M1138.5,264.5
			l-1.2-4c-0.3-1.1-0.7-2.5-1-3.7h-0.1c-0.3,1.1-0.6,2.6-0.9,3.7l-1.1,4H1138.5z"/>
		<path id="XMLID_49_" fill="#A8A8A9" d="M1156.9,253.9c1.6-0.3,3.6-0.4,5.8-0.4c3.6,0,5.9,0.6,7.8,2c2,1.5,3.2,3.8,3.2,7.2
			c0,3.6-1.3,6.1-3.2,7.7c-2,1.7-5,2.5-8.8,2.5c-2.2,0-3.8-0.1-4.9-0.3V253.9z M1161.2,269.4c0.4,0.1,1,0.1,1.5,0.1
			c3.9,0,6.4-2.1,6.4-6.7c0-3.9-2.3-6-6-6c-1,0-1.6,0.1-1.9,0.2V269.4z"/>
		<path id="XMLID_52_" fill="#A8A8A9" d="M1184.2,253.6v19h-4.3v-19H1184.2z"/>
		<path id="XMLID_54_" fill="#A8A8A9" d="M1207.3,271.7c-1.3,0.5-3.8,1.1-6.3,1.1c-3.5,0-6-0.9-7.7-2.6c-1.7-1.6-2.7-4.1-2.7-6.9
			c0-6.3,4.6-9.9,10.9-9.9c2.5,0,4.3,0.5,5.3,0.9l-0.9,3.4c-1-0.5-2.3-0.8-4.4-0.8c-3.6,0-6.3,2-6.3,6.1c0,3.9,2.5,6.2,6,6.2
			c1,0,1.8-0.1,2.1-0.3v-4h-2.9v-3.4h7.1V271.7z"/>
		<path id="XMLID_56_" fill="#A8A8A9" d="M1218.3,253.6v19h-4.3v-19H1218.3z"/>
		<path id="XMLID_58_" fill="#A8A8A9" d="M1229.1,257.2h-5.1v-3.6h14.6v3.6h-5.2v15.4h-4.3V257.2z"/>
		<path id="XMLID_60_" fill="#A8A8A9" d="M1248.8,267.7l-1.4,4.9h-4.5l5.8-19h5.6l5.9,19h-4.6l-1.5-4.9H1248.8z M1253.6,264.5
			l-1.2-4c-0.3-1.1-0.7-2.5-1-3.7h-0.1c-0.3,1.1-0.6,2.6-0.9,3.7l-1.1,4H1253.6z"/>
		<path id="XMLID_63_" fill="#A8A8A9" d="M1266.3,253.6h4.3V269h7.6v3.6h-11.9V253.6z"/>
	</g>
</g>
</svg>
